<?xml version="1.0" encoding="UTF-8" standalone="no"?>
<!-- Created with Inkscape (http://www.inkscape.org/) -->

<svg
   xmlns:dc="http://purl.org/dc/elements/1.1/"
   xmlns:cc="http://creativecommons.org/ns#"
   xmlns:rdf="http://www.w3.org/1999/02/22-rdf-syntax-ns#"
   xmlns:svg="http://www.w3.org/2000/svg"
   xmlns="http://www.w3.org/2000/svg"
   xmlns:sodipodi="http://sodipodi.sourceforge.net/DTD/sodipodi-0.dtd"
   xmlns:inkscape="http://www.inkscape.org/namespaces/inkscape"
   width="454.89206mm"
   height="310.87872mm"
   viewBox="0 0 1611.8223 1101.5388"
   id="svg2"
   version="1.1"
   inkscape:version="0.91 r13725"
   inkscape:export-filename="C:\Users\SEASME-UNI\Desktop\phoenix.png"
   inkscape:export-xdpi="200"
   inkscape:export-ydpi="200"
   sodipodi:docname="phoenix.svg">
  <defs
     id="defs4" />
  <sodipodi:namedview
     id="base"
     pagecolor="#ffffff"
     bordercolor="#666666"
     borderopacity="1.0"
     inkscape:pageopacity="0.0"
     inkscape:pageshadow="2"
     inkscape:zoom="0.25"
     inkscape:cx="874.96924"
     inkscape:cy="393.06683"
     inkscape:document-units="px"
     inkscape:current-layer="layer1"
     showgrid="false"
     inkscape:window-width="1920"
     inkscape:window-height="1018"
     inkscape:window-x="-8"
     inkscape:window-y="-8"
     inkscape:window-maximized="1"
     fit-margin-top="0"
     fit-margin-left="0"
     fit-margin-right="0"
     fit-margin-bottom="0" />
  <metadata
     id="metadata7">
    <rdf:RDF>
      <cc:Work
         rdf:about="">
        <dc:format>image/svg+xml</dc:format>
        <dc:type
           rdf:resource="http://purl.org/dc/dcmitype/StillImage" />
        <dc:title></dc:title>
      </cc:Work>
    </rdf:RDF>
  </metadata>
  <g
     inkscape:label="Capa 1"
     inkscape:groupmode="layer"
     id="layer1"
     transform="translate(-60.463436,-7.3613292)">
    <path
       style="fill:#f15523;fill-opacity:1"
       d="m 1124.2857,1107.7313 c -5.225,-0.73 -13.2116,-2.2782 -17.748,-3.4405 -4.5365,-1.1622 -11.5115,-3.2763 -15.5,-4.698 -3.9886,-1.4217 -12.9134,-5.4832 -19.8329,-9.0256 -6.9196,-3.5423 -17.2696,-9.9698 -23,-14.2832 -6.8219,-5.135 -16.4127,-14.1043 -27.7792,-25.979 -9.5481,-9.9749 -21.6981,-21.7724 -27,-26.2167 -5.3019,-4.4442 -15.0168,-11.6511 -21.5886,-16.0154 -6.5719,-4.3642 -17.3719,-10.5519 -24,-13.7506 -6.6282,-3.1986 -14.7513,-6.7882 -18.05133,-7.9769 -3.3,-1.1887 -11.175,-3.4829 -17.5,-5.0982 l -11.5,-2.9369 14.8127,-0.045 c 8.1469,-0.025 21.42193,0.4281 29.50003,1.0069 8.078,0.5788 20.7623,1.9269 28.1873,2.9957 7.425,1.0687 18.7957,3.2851 25.2683,4.9252 6.4725,1.6401 16.3725,4.7839 22,6.9862 5.6274,2.2023 13.8141,6.0477 18.1926,8.5453 4.3785,2.4975 11.2196,7.037 15.2026,10.0877 3.9829,3.0507 11.0206,9.5177 15.6392,14.3711 4.6187,4.8535 11.5481,13.0346 15.3987,18.1804 3.8506,5.1458 10.5316,14.981 14.8466,21.856 5.6685,9.0315 10.3575,15.0174 16.8987,21.5723 5.3463,5.3575 12.075,10.8854 16.4328,13.5 4.0588,2.4353 7.4338,4.8777 7.5,5.4277 0.066,0.55 -1.4545,1.0763 -3.3795,1.1696 -1.925,0.093 -7.775,-0.4276 -13,-1.1576 z m -93.2109,-144.6274 c -5.341,-2.1495 -15.2193,-5.49356 -21.9519,-7.43146 -6.7325,-1.9378 -17.6626,-4.6163 -24.2891,-5.9521 -6.6264,-1.3359 -17.2231,-3.144 -23.5481,-4.018 -6.325,-0.874 -21.85,-1.8417 -34.50003,-2.1505 -17.1118,-0.4177 -27.2241,-0.1542 -39.5,1.0292 -9.075,0.8748 -31.1396,3.6092 -49.0325,6.0763 -17.8928,2.4672 -39.7178,5.2643 -48.5,6.2158 -11.5084,1.2469 -24.7642,1.7458 -47.4675,1.7862 -28.72199,0.051 -32.68579,-0.1509 -44.94639,-2.2917 -7.39554,-1.2913 -20.2613,-4.0764 -28.59057,-6.189 -8.32927,-2.1127 -20.72838,-5.7057 -27.55357,-7.9844 -6.82519,-2.2788 -18.03443,-6.3997 -24.90943,-9.1578 -6.875,-2.758 -21.05,-9.1948 -31.5,-14.304 -10.45,-5.1091 -25.525,-13.2299 -33.5,-18.046 -7.975,-4.8162 -18.325,-11.3277 -23,-14.4701 -4.675,-3.1424 -13.9,-9.748 -20.5,-14.6792 -6.6,-4.9312 -16.95,-13.134 -23,-18.2286 -6.05,-5.0945 -16.59478,-14.5112 -23.43284,-20.9259 -6.83807,-6.4148 -17.81263,-17.5133 -24.38793,-24.6633 -6.57529,-7.15 -15.7883,-17.6544 -20.47336,-23.343 -4.68505,-5.6887 -12.94798,-16.2477 -18.36207,-23.4645 -5.41409,-7.2168 -9.8438,-13.7374 -9.8438,-14.4903 0,-0.7529 0.34173,-1.2189 0.7594,-1.0355 0.41767,0.1833 7.28017,4.6821 15.25,9.9973 7.96983,5.3152 21.00394,13.3836 28.96468,17.9298 7.96075,4.5462 20.78575,11.277 28.5,14.9575 7.71426,3.6804 19.65092,8.9579 26.52592,11.7277 6.875,2.7699 17.45,6.6821 23.5,8.694 6.05,2.0118 16.85,5.1644 24,7.0058 7.15,1.8414 18.625,4.2839 25.5,5.4279 6.875,1.1439 17.675,2.529 24,3.078 6.325,0.549 16.225,0.9982 22,0.9982 5.775,0 15.675,-0.4499 22,-0.9998 6.325,-0.5499 15.55,-1.6864 20.5,-2.5257 4.95,-0.8392 13.275,-2.6059 18.5,-3.9259 5.225,-1.32 14.675,-4.1995 21,-6.399 6.325,-2.1994 18.05377,-6.2635 26.06393,-9.0314 8.01017,-2.7678 18.81013,-5.7211 24.00003,-6.5628 5.1898,-0.8416 12.361,-1.5308 15.936,-1.5315 3.575,-6e-4 10.55,0.4951 15.5,1.1018 4.95,0.6066 12.7999,2.2036 17.4442,3.549 4.6443,1.3454 11.6193,3.781 15.5,5.4126 3.8807,1.6315 8.1741,3.8274 9.5409,4.8797 1.3668,1.0523 2.2519,2.1465 1.9669,2.4314 -0.2849,0.285 -5.4532,1.2355 -11.485,2.1124 -6.0318,0.8768 -14.342,2.4883 -18.467,3.5812 -4.125,1.0929 -10.3287,3.1028 -13.786,4.4663 -3.4574,1.3636 -7.9913,3.5557 -10.0754,4.8714 -2.0842,1.3156 -5.2311,3.8338 -6.9932,5.5958 -1.762,1.7621 -3.9551,4.6186 -4.8733,6.3477 -0.9737,1.8336 -1.6713,5.4362 -1.6737,8.6439 0,3.3141 0.7305,7.0168 1.8443,9.3166 1.0166,2.0991 3.7775,5.7456 6.1352,8.1033 2.3577,2.3577 7.868,6.15 12.2451,8.4272 4.3771,2.2772 11.9451,5.4427 16.8177,7.0344 4.8726,1.5917 13.5843,3.823 19.3593,4.9586 5.775,1.1356 13.875,2.5356 18,3.1112 4.125,0.5755 13.575,1.4959 21,2.0452 7.425,0.5492 18.9,1.0046 25.5,1.0118 6.6,0.01 18.3,0.6794 26,1.4938 7.7,0.8143 17.825,2.1805 22.5,3.0358 4.675,0.8554 14.437,3.1019 21.69323,4.9924 7.2562,1.8904 17.8438,5.184 23.528,7.3191 5.6843,2.1351 15.0473,6.2374 20.8069,9.1162 5.7595,2.8789 14.2969,7.7238 18.9719,10.7665 4.675,3.0427 11.875,8.3607 16,11.8178 4.125,3.457 9.7899,8.685 12.5886,11.6178 2.7987,2.9328 6.7322,7.3988 8.7411,9.92446 2.0089,2.5257 3.3566,4.8882 2.9948,5.25 -0.3618,0.3618 -0.9203,0.6112 -1.2412,0.5542 -0.3208,-0.057 -4.9532,-1.8623 -10.2942,-4.0118 z m 352.2109,-185.38456 0,-19.5 -6.5,0 -6.5,0 0,-4.5 0,-4.5 18,0 18,0 0,4.5 0,4.5 -6.5,0 -6.5,0 0,19.5 0,19.5 -5,0 -5,0 0,-19.5 z m 32.5794,10.25 c 0.2305,-5.0875 0.6912,-15.8875 1.0238,-24 l 0.6047,-14.75 5.1461,0.01 5.146,0.01 5.3981,14.7405 c 2.9689,8.1073 5.728,15.1147 6.1314,15.572 0.4033,0.4572 2.0737,-2.6928 3.712,-7 1.6382,-4.3073 4.2791,-11.314 5.8686,-15.5706 l 2.8899,-7.7391 5.1435,-0.011 5.1436,-0.011 0.6154,16.75 c 0.3385,9.2125 0.8551,20.0125 1.1481,24 l 0.5328,7.25 -5.0417,0 -5.0417,0 0,-13.6667 c 0,-7.5166 -0.3375,-13.3419 -0.75,-12.9451 -0.4125,0.3969 -2.5639,5.3094 -4.781,10.9167 l -4.031,10.1951 -4.969,0 -4.969,0 -4,-10.2472 c -2.2,-5.636 -4.3375,-10.2485 -4.75,-10.25 -0.4125,0 -0.75,5.8472 -0.75,12.9972 l 0,13 -4.9199,0 -4.9198,0 0.4191,-9.25 z m -344.1192,5.1857 c -0.2242,-0.3628 4.6431,-2.2797 10.8161,-4.2598 6.173,-1.9801 15.2737,-5.5855 20.2237,-8.0121 4.95,-2.4266 13.05,-7.1039 18,-10.3939 4.95,-3.2901 11.7,-8.0909 15,-10.6685 3.3,-2.5775 11.2865,-9.5048 17.7478,-15.3939 6.4613,-5.88909 25.0831,-24.77663 41.3818,-41.97224 16.2987,-17.19561 35.3699,-36.44765 42.3804,-42.78232 7.0104,-6.33467 16.4549,-14.43948 20.9877,-18.01069 4.5327,-3.57121 12.5751,-9.3599 17.8718,-12.86375 5.2968,-3.50385 13.4555,-8.41851 18.1305,-10.92146 4.675,-2.50295 13.675,-6.63205 20,-9.17576 6.325,-2.54372 16.4933,-5.91692 22.5962,-7.49602 6.1029,-1.57909 16.2279,-3.66195 22.5,-4.62858 8.1831,-1.26114 17.1934,-1.74809 31.9038,-1.7242 13.3892,0.0217 24.7023,0.60908 32.6149,1.69324 6.6632,0.91296 17.295,2.96818 23.6261,4.56713 6.3312,1.59896 15.7295,4.5804 20.8851,6.62543 5.1557,2.04502 12.929,5.80252 17.274,8.34998 4.3451,2.54746 9.9701,6.57722 12.5,8.95501 2.9832,2.80376 3.897,4.13846 2.5999,3.79746 -1.1,-0.28919 -5.15,-1.45734 -9,-2.5959 -3.85,-1.13856 -11.275,-2.78062 -16.5,-3.64902 -5.3618,-0.89113 -16.034,-1.624 -24.5,-1.68244 -12.7573,-0.088 -16.1877,0.23364 -22.9434,2.15156 -4.3689,1.2403 -11.3628,4.03406 -15.5421,6.20836 -4.1793,2.1743 -11.1919,6.82815 -15.5835,10.34188 -4.3916,3.51374 -10.8977,9.48185 -14.4579,13.26247 -3.5602,3.78061 -12.9816,14.29176 -20.9364,23.35811 -7.9548,9.06634 -19.6901,21.68303 -26.0786,28.03708 -6.3884,6.35404 -16.53,15.50587 -22.5367,20.33738 -6.0068,4.83151 -15.4214,11.7802 -20.9214,15.4415 -5.5,3.66139 -17.65,10.51559 -27,15.23169 -9.35,4.7161 -22.778,10.6827 -29.8401,13.259 -7.062,2.5763 -19.376,6.4763 -27.3643,8.6666 -7.9884,2.1903 -21.3354,5.3104 -29.66,6.9335 -8.3246,1.6231 -22.5606,3.8653 -31.6356,4.9827 -9.075,1.1173 -23.7,2.4904 -32.5,3.0511 -8.8,0.5608 -21.7672,1.159 -28.8161,1.3293 -7.0488,0.1703 -12.9995,0.013 -13.2237,-0.3499 z m -495.96019,-13.6285 c -1.65,-0.2162 -8.175,-1.2893 -14.5,-2.3848 -6.325,-1.0954 -18.25,-3.7486 -26.5,-5.896 -8.25,-2.1473 -20.85,-5.8913 -28,-8.32 -7.15,-2.4287 -18.175,-6.5376 -24.5,-9.131 -6.325,-2.5934 -17.35,-7.584 -24.5,-11.09029 -7.15,-3.5062 -19.06931,-10.0284 -26.48735,-14.4937 -7.41804,-4.46529 -18.44304,-11.68646 -24.5,-16.04704 -6.05696,-4.36057 -15.51265,-11.7061 -21.01265,-16.32339 -5.5,-4.61729 -16.10772,-14.6334 -23.57272,-22.25802 -7.46499,-7.62462 -17.28704,-18.54194 -21.82676,-24.2607 -4.53973,-5.71876 -11.29453,-14.94376 -15.01068,-20.5 -3.71615,-5.55624 -9.10039,-14.08536 -11.96498,-18.9536 -2.86459,-4.86825 -7.40425,-13.22721 -10.08814,-18.57547 -2.68388,-5.34826 -6.98272,-14.64015 -9.55298,-20.64865 -2.57026,-6.00849 -7.07515,-18.12453 -10.01085,-26.92453 -2.93571,-8.8 -6.68802,-21.4 -8.33847,-28 -1.65044,-6.6 -4.16727,-18.0239 -5.59295,-25.38645 -1.42567,-7.36255 -3.46807,-20.41255 -4.53867,-29 -1.07059,-8.58745 -2.40919,-22.51185 -2.97466,-30.9431 -0.56548,-8.43126 -1.03437,-23.73126 -1.04198,-34 -0.008,-10.26875 -0.45826,-27.67045 -1.00143,-38.67045 -0.54318,-11 -1.68151,-26.975 -2.52964,-35.5 -0.84813,-8.525 -2.64273,-22.34813 -3.988,-30.71807 -1.34527,-8.36995 -3.59011,-20.51995 -4.98855,-27 -1.39843,-6.48006 -4.30714,-17.88059 -6.4638,-25.3345 -2.15666,-7.45391 -6.43881,-19.82891 -9.51588,-27.5 -3.07708,-7.67109 -8.06803,-18.62241 -11.091,-24.33628 -3.02298,-5.71386 -8.72912,-15.16386 -12.68033,-21 -4.74909,-7.01466 -11.42807,-14.87313 -19.70577,-23.18578 -8.19354,-8.22813 -15.74685,-14.7126 -21.8521,-18.7599 -5.13168,-3.4019 -13.00668,-7.9268 -17.5,-10.05533 -4.49331,-2.12853 -11.54466,-5.02021 -15.66966,-6.42595 -4.125,-1.40575 -12.225,-3.5536 -18,-4.77301 -8.146,-1.72006 -14.08705,-2.23887 -26.5,-2.31415 -8.8,-0.0534 -19.08065,0.25742 -22.84589,0.69064 -5.23955,0.60286 -6.75001,0.50004 -6.43728,-0.43816 0.22474,-0.67421 4.65539,-4.27882 9.84589,-8.01023 5.19051,-3.73141 15.13613,-10.18926 22.10138,-14.35077 6.96526,-4.16151 19.34026,-10.88868 27.5,-14.94925 8.15975,-4.060577 19.56443,-9.387917 25.34374,-11.838527 5.77931,-2.45062 16.69192,-6.75914 24.25025,-9.5745 7.55832,-2.81536 20.6048,-7.16671 28.99216,-9.66967 8.38736,-2.50296 20.42475,-5.85071 26.74975,-7.43945 6.325,-1.58874 18.25,-4.23526 26.5,-5.88116 8.25,-1.6459 21.3,-3.91007 29,-5.03148 7.7,-1.12142 20.525,-2.72394 28.5,-3.56115 7.975,-0.8372098 26.32882,-2.0575398 40.78626,-2.7118398 20.27732,-0.9177 31.02135,-0.91897 47,-0.006 11.39256,0.65124 28.13874,2.2696698 37.21374,3.5965098 9.075,1.32685 21.55578,3.55943 27.73506,4.9613 6.17928,1.40188 16.07928,3.95166 22,5.6662 5.92072,1.71454 16.83994,5.3762 24.26494,8.13703 7.425,2.76083 20.30617,8.2888 28.62483,12.28437 8.31866,3.99558 19.56866,9.86873 25,13.05146 5.43134,3.18273 14.60017,8.930147 20.37517,12.772037 5.775,3.8419 14.775,10.18077 20,14.08638 5.225,3.90562 14.675,11.44156 21,16.74655 6.325,5.30498 17.50645,15.27791 24.84766,22.16206 7.34122,6.88415 19.89133,19.42268 27.88915,27.86341 7.99782,8.44073 20.98228,22.67527 28.85435,31.63232 7.87207,8.95705 26.147,30.32938 40.6109,47.49407 14.4638,17.1647 32.5379,38.4112 40.1645,47.21446 7.6266,8.80326 21.2779,23.98262 30.3363,33.73191 9.0584,9.74929 22.3934,23.26494 29.6335,30.03478 7.24,6.76984 16.5386,15.25416 20.6636,18.85403 4.125,3.59988 11.775,9.92468 17,14.05511 5.225,4.13043 14,10.6665 19.5,14.52461 5.5,3.8581 15.625,10.39678 22.5,14.5304 6.87503,4.13362 17.00003,9.76897 22.50003,12.52299 5.5,2.75402 14.5,6.92416 20,9.26698 5.5,2.34281 17.2,6.63276 26,9.53322 8.8,2.90045 22.3,6.63309 30,8.29476 7.7,1.66166 18.95,3.71761 25,4.56878 6.05,0.85116 16.4,2.0021 23,2.55765 6.6,0.55554 15.075,1.01472 18.8333,1.02039 4.9004,0.007 6.7192,0.3528 6.4298,1.22102 -0.222,0.66589 -6.897,4.25566 -14.8333,7.97728 -7.9364,3.72161 -21.239,9.4591 -29.5613,12.74996 -8.3223,3.29086 -20.3537,7.56634 -26.7366,9.50106 -6.3828,1.93472 -16.2236,4.49349 -21.8685,5.68616 -8.1611,1.72431 -13.5407,2.15914 -26.2634,2.12284 -9.1676,-0.0262 -21.0789,-0.75267 -27.8939,-1.70135 -6.5416,-0.91064 -16.8916,-2.95116 -23.00003,-4.53449 -6.1083,-1.58333 -15.1561,-4.51232 -20.1061,-6.50886 -4.95,-1.99654 -12.375,-5.46965 -16.5,-7.71802 -4.125,-2.24838 -10.875,-6.34773 -15,-9.10968 -4.125,-2.76195 -11.55,-8.28387 -16.5,-12.27093 -4.95,-3.98705 -14.4,-12.06327 -21,-17.94715 -6.6,-5.88388 -15.6314,-13.54293 -20.0699,-17.02012 -4.4384,-3.47719 -11.4134,-8.29799 -15.5,-10.7129 -4.0865,-2.41491 -10.3551,-5.55452 -13.9301,-6.97692 -3.575,-1.42241 -9.425,-3.395 -13,-4.38355 -5.012,-1.38591 -10.1626,-1.79581 -22.5,-1.79059 -11.8244,0.005 -17.8005,0.45829 -22.8995,1.73696 -3.7948,0.9516 -9.70802,3.07054 -13.14059,4.70875 -3.43256,1.63821 -8.49263,5.00296 -11.2446,7.47721 -2.75197,2.47426 -6.44415,6.74359 -8.20485,9.48741 -1.76071,2.74382 -4.26897,8.05889 -5.57392,11.81126 -1.30494,3.75238 -2.8991,11.28651 -3.54256,16.74252 -0.90819,7.7007 -0.89584,11.71454 0.0552,17.94124 0.67382,4.41166 3.17822,13.96057 5.56533,21.21979 2.38711,7.25921 6.99181,18.73421 10.23266,25.5 3.24086,6.76578 8.7482,17.02642 12.23854,22.80142 3.49033,5.775 9.25099,14.55 12.80139,19.5 3.5505,4.95 8.5276,11.475 11.0603,14.5 2.5328,3.025 8.1444,9.39329 12.4702,14.15175 4.3259,4.75846 12.6067,12.85846 18.4019,18 5.7951,5.14154 13.9665,11.98724 18.1586,15.21268 4.1921,3.22543 12.5719,9.12609 18.6219,13.11258 6.05,3.98648 16.4,10.22061 23,13.85361 6.6,3.633 18.075,9.2662 25.5,12.51823 7.425,3.25202 20.25,8.2444 28.5,11.09416 8.25,2.84977 20.85,6.72031 28,8.6012 7.15,1.88089 18.4,4.51497 25.00003,5.85352 6.6,1.33854 18.3,3.34867 26,4.46695 7.7,1.11828 19.625,2.61871 26.5,3.33428 7.9353,0.82593 26.3768,1.30104 50.5,1.30104 24.9466,0 41.6068,-0.44333 48.5,-1.29058 5.775,-0.70982 15.675,-2.19003 22,-3.28936 6.325,-1.09934 16,-3.11846 21.5,-4.48694 5.5,-1.36848 14.1631,-3.86307 19.2513,-5.54353 5.0882,-1.68046 9.8132,-2.85601 10.5,-2.61232 0.709,0.25156 -4.5864,6.24583 -12.2513,13.86821 -7.425,7.38383 -19.4913,18.20864 -26.8141,24.05514 -7.3227,5.84649 -18.3477,13.9901 -24.5,18.09691 -6.1522,4.10681 -14.7859,9.59407 -19.1859,12.19387 -4.4,2.5998 -14.075,7.7735 -21.5,11.49712 -7.425,3.7236 -19.8462,9.2838 -27.6028,12.3561 -7.7565,3.0722 -20.2275,7.3768 -27.7131,9.5657 -7.4857,2.1889 -19.1395,5.1086 -25.8972,6.4881 -6.7578,1.3795 -17.6869,3.301 -24.2869,4.2698 -8.9843,1.3189 -18.5339,1.7704 -38.00003,1.7967 -21.682,0.029 -27.4116,-0.2727 -34.5,-1.8181 -4.675,-1.0193 -13.225,-3.4266 -19,-5.3497 -5.775,-1.923 -15.45,-5.9644 -21.5,-8.9808 -6.05,-3.0164 -15.95,-8.7865 -22,-12.8226 -6.05,-4.0361 -14.825,-10.37412 -19.5,-14.08442 -4.675,-3.7104 -17.5029,-15.78287 -28.5064,-26.82773 -11.0036,-11.04444 -25.8853,-27.05614 -33.0704,-35.58114 -7.1851,-8.525 -20.87943,-25.175 -30.43179,-37 -9.55235,-11.825 -23.02069,-28.23476 -29.92964,-36.46614 -6.90895,-8.23137 -18.41173,-21.00182 -25.56173,-28.37878 -7.15,-7.37696 -17.05,-16.81253 -22,-20.96794 -4.95,-4.1554 -13.46426,-10.48137 -18.92057,-14.0577 -5.45631,-3.57632 -13.78131,-8.14632 -18.5,-10.15554 -4.71869,-2.00922 -11.50443,-4.5128 -15.07943,-5.56352 -5.34936,-1.5722 -9.68638,-1.90783 -24.5,-1.89597 -15.52006,0.0124 -19.23997,0.33305 -27,2.32723 -4.95,1.27205 -12.825,4.1807 -17.5,6.46367 -6.35567,3.1037 -10.27858,5.92229 -15.55021,11.17277 -4.55233,4.53406 -8.33685,9.5078 -10.68174,14.03825 -1.99734,3.85899 -4.56924,10.38399 -5.71532,14.5 -1.14608,4.11602 -2.35435,11.98367 -2.68504,17.48367 -0.43187,7.18301 -0.13448,12.67614 1.05572,19.5 0.91133,5.225 3.4559,14.88465 5.6546,21.46588 2.19869,6.58124 6.718,17.47088 10.04289,24.1992 3.32489,6.72833 9.5293,17.54368 13.78757,24.03412 4.25827,6.49044 10.44306,15.1758 13.74398,19.3008 3.30092,4.125 9.46117,11.16991 13.68946,15.65535 4.22828,4.48545 12.21967,11.91045 17.75864,16.5 5.53897,4.58955 13.96979,10.96105 18.73515,14.15875 4.76537,3.19779 12.7143,7.98789 17.6643,10.64469 4.95,2.6567 14.175,6.8834 20.5,9.3927 6.325,2.5092 16.78151,5.9222 23.23668,7.5845 6.45518,1.6623 16.09586,3.6037 21.42375,4.3144 5.32788,0.7106 9.84935,1.7789 10.04771,2.374 0.22388,0.6717 -2.40202,1.3405 -6.92374,1.7635 -4.00642,0.3748 -14.9344,1.3352 -24.2844,2.1341 -9.35,0.7989 -24.425,1.3909 -33.5,1.3155 -9.075,-0.076 -17.85,-0.3141 -19.5,-0.5303 z m -273,-683.30013 c 3.3,-0.53974 8.7714,-2.34511 12.15868,-4.01191 3.97352,-1.95529 8.12504,-5.15447 11.70071,-9.01662 3.04812,-3.29234 6.87446,-8.79687 8.50297,-12.2323 1.62852,-3.43543 3.11319,-7.37123 3.29929,-8.74623 0.30384,-2.245007 -0.0496,-2.531977 -3.46562,-2.813577 -2.09219,-0.17247 -11.31344,0.39796 -20.49168,1.267617 -9.17823,0.86967 -22.99145,2.49846 -30.69603,3.61953 -7.70457,1.12108 -19.14587,3.0258 -25.4251,4.23273 -6.45337,1.24039 -11.59647,2.73345 -11.83009,3.43432 -0.22732,0.68196 2.06233,3.8318 5.08812,6.99965 3.02579,3.16785 7.92986,7.22748 10.89794,9.02139 2.96807,1.79392 8.00746,4.17935 11.19863,5.30095 3.19117,1.12161 8.33564,2.41149 11.43216,2.8664 3.09651,0.45491 6.98002,0.87937 8.63002,0.94326 1.65,0.0639 5.7,-0.32546 9,-0.86521 z M 1589.2132,777.14934 c -4.1648,-0.4422 -10.6239,-1.5116 -14.3534,-2.3766 -3.7295,-0.8649 -9.7719,-2.7552 -13.4275,-4.2007 -3.6556,-1.4454 -9.6857,-4.3869 -13.4002,-6.5366 -3.7146,-2.1497 -9.5646,-6.2273 -13,-9.0612 -3.4355,-2.8339 -12.9964,-11.6395 -21.2464,-19.56799 -8.25,-7.92845 -18.825,-17.31615 -23.5,-20.86155 -4.675,-3.5454 -13.45,-8.87871 -19.5,-11.85181 -6.2106,-3.05202 -15.1588,-6.47409 -20.5516,-7.8596 -5.2534,-1.34968 -15.0409,-3.00369 -21.75,-3.67557 -7.5306,-0.75414 -12.1972,-1.64572 -12.1951,-2.32998 0,-0.60962 3.9335,-3.35839 8.7372,-6.10839 4.8037,-2.75 13.5481,-6.92949 19.4321,-9.28777 5.884,-2.35827 15.5647,-5.38814 21.5128,-6.73304 5.948,-1.34491 15.3146,-2.73336 20.8146,-3.08545 5.7017,-0.365 14.6491,-0.13618 20.8161,0.53234 5.9488,0.64487 15.0313,2.24179 20.1834,3.54872 5.152,1.30692 13.5598,4.39167 18.6839,6.855 5.1241,2.46333 13.3548,7.33434 18.2903,10.82449 5.7774,4.08548 16.4629,13.84442 30,27.39872 11.5645,11.57915 23.8418,23.19529 27.2831,25.81369 3.4412,2.6183 9.9662,6.72859 14.5,9.13399 4.5337,2.4054 11.5981,5.2987 15.6985,6.4296 4.1004,1.1308 10.2879,2.3463 13.75,2.701 4.2778,0.4383 6.2947,1.0748 6.2947,1.9865 0,0.7378 -1.6875,2.1912 -3.75,3.2297 -2.0625,1.0384 -7.8,3.4747 -12.75,5.414 -4.95,1.9392 -13.725,4.6872 -19.5,6.1066 -5.775,1.4194 -15.1602,3.0423 -20.856,3.6063 -5.6957,0.5641 -12.2207,0.9657 -14.5,0.8926 -2.2792,-0.073 -7.5516,-0.4948 -11.7165,-0.937 z M 995.2857,636.19166 c -4.125,-0.50503 -12.0007,-1.81261 -17.5016,-2.90573 -5.501,-1.09312 -14.051,-3.15183 -19,-4.5749 -4.9491,-1.42308 -12.8234,-3.97942 -17.4984,-5.68077 -4.675,-1.70135 -12.21253,-4.80074 -16.75003,-6.88753 -4.5375,-2.08679 -8.25,-4.21514 -8.25,-4.72966 0,-0.57392 1.836,-0.59252 4.75,-0.0481 2.6125,0.48806 11.50003,1.80523 19.75003,2.92704 8.25,1.12182 23.55,2.30354 34,2.62606 15.223,0.46982 20.9412,0.25509 28.7649,-1.08018 5.3706,-0.91661 13.9206,-3.04306 19,-4.72544 5.0793,-1.68237 14.6351,-5.67122 21.2351,-8.8641 6.6,-3.19288 24.825,-13.5592 40.5,-23.03625 15.675,-9.47706 34.1675,-20.33064 41.0944,-24.11906 6.927,-3.78843 18.1244,-9.37016 24.8832,-12.40384 6.7587,-3.03369 17.7412,-7.48049 24.4055,-9.8818 6.6643,-2.4013 18.4169,-5.97625 26.1169,-7.94434 7.7,-1.96809 19.625,-4.47355 26.5,-5.56768 6.875,-1.09414 17.675,-2.4573 24,-3.02926 6.325,-0.57195 18.9962,-1.04145 28.1583,-1.04333 9.4354,-0.002 22.0095,0.68762 29,1.59034 6.7879,0.87656 18.1917,3.07017 25.3417,4.87469 7.15,1.80451 17.5,4.94696 23,6.98323 5.5,2.03626 15.5391,6.43104 22.3091,9.76617 6.77,3.33513 16.9158,9.10634 22.5461,12.8249 5.6304,3.71856 10.8339,7.48018 11.5634,8.35914 1.1297,1.36127 1.0653,1.59811 -0.4351,1.59811 -0.9687,0 -6.9863,-0.88727 -13.3724,-1.97172 -6.3861,-1.08445 -18.8111,-2.8538 -27.6111,-3.9319 -8.8,-1.0781 -23.4234,-2.50488 -32.4965,-3.17062 -9.3956,-0.68941 -22.7396,-0.94878 -31,-0.60254 -9.9654,0.4177 -17.7889,1.36983 -25.0035,3.04295 -5.775,1.33927 -13.991,3.8265 -18.2578,5.52718 -4.2667,1.70068 -11.3954,4.92112 -15.8414,7.15653 -4.446,2.23542 -17.605,9.73871 -29.2422,16.67399 -11.6372,6.93527 -26.1086,15.1482 -32.1586,18.25094 -6.05,3.10274 -14.6,7.14604 -19,8.98511 -4.4,1.83907 -12.9914,5.05084 -19.092,7.13727 -6.1006,2.08643 -16.6466,5.19581 -23.4355,6.90974 -6.7888,1.71393 -18.7533,4.20212 -26.5878,5.52931 -7.8344,1.32718 -21.1385,3.12067 -29.5646,3.98551 -8.426,0.86484 -27.0201,1.75162 -41.3201,1.97062 -14.3,0.219 -29.375,-0.015 -33.5,-0.52006 z m 450.4318,-162.72231 c -0.3335,-1.5125 -1.2239,-5 -1.9787,-7.75 -0.7548,-2.75 -3.3641,-9.05 -5.7984,-14 -2.4343,-4.95 -6.8137,-12.375 -9.7321,-16.5 -2.9184,-4.125 -8.9323,-11.11923 -13.3644,-15.54273 -4.432,-4.4235 -11.0133,-10.14168 -14.625,-12.70707 -3.6118,-2.56538 -10.1368,-6.49457 -14.5,-8.73154 -4.3633,-2.23696 -11.9832,-5.36387 -16.9332,-6.94869 -4.95,-1.58481 -13.4632,-3.43898 -18.9181,-4.12036 -6.2087,-0.77553 -14.3855,-0.99867 -21.8626,-0.59664 -6.5694,0.35324 -17.4452,1.75603 -24.1684,3.11732 -6.7231,1.36129 -22.76,5.89198 -35.6374,10.06819 -12.8774,4.17622 -28.6978,8.88801 -35.1563,10.47065 -6.4586,1.58264 -17.2586,3.79168 -24,4.90898 -6.7415,1.1173 -17.6572,2.48816 -24.2572,3.04636 -6.6,0.55819 -22.8472,1.01954 -36.1048,1.02521 -13.2576,0.006 -29.9076,-0.44726 -37,-1.00653 -7.0924,-0.55927 -18.5202,-1.7176 -25.3952,-2.57408 -6.875,-0.85647 -18.35,-2.67895 -25.5,-4.04995 -7.15,-1.371 -18.4,-3.83286 -25,-5.4708 -6.6,-1.63793 -17.85,-4.80639 -25,-7.04101 -7.15,-2.23462 -18.175,-6.08152 -24.5,-8.54868 -6.325,-2.46715 -19.3083,-8.26388 -28.8519,-12.88161 -9.5436,-4.61774 -22.5936,-11.51175 -29.00003,-15.32003 -6.4064,-3.80828 -16.4412,-10.22554 -22.2996,-14.26057 -5.8583,-4.03503 -15.5333,-11.16121 -21.5,-15.83594 -5.9666,-4.67474 -19.2064,-16.82474 -29.4216,-27 -10.2152,-10.17527 -21.3527,-22.01468 -24.75,-26.30981 -3.3973,-4.29512 -6.1769,-8.24675 -6.1769,-8.78138 0,-0.53463 0.6725,-1.2301 1.4943,-1.54547 0.899,-0.34499 4.9824,2.01952 10.25,5.9354 4.8157,3.57985 13.768,9.68589 19.8941,13.56897 6.1261,3.88309 17.1511,10.2005 24.5,14.0387 7.3489,3.8382 18.7616,9.28931 25.3616,12.11358 6.6,2.82428 19.2,7.56169 28.00003,10.52757 8.8,2.96589 21.36,6.76673 27.911,8.44631 6.551,1.67958 17.801,4.14002 25,5.46763 7.199,1.32762 18.489,3.10879 25.089,3.95815 6.6,0.84935 20.325,2.04521 30.5,2.65746 10.175,0.61225 25.25,0.8245 33.5,0.47167 8.25,-0.35283 21.075,-1.32467 28.5,-2.15963 7.425,-0.83496 18.225,-2.41956 24,-3.52133 5.775,-1.10176 16.6746,-3.55038 24.2214,-5.44137 7.5468,-1.89099 23.9718,-6.61001 36.5,-10.48672 12.5282,-3.87672 28.6286,-8.58415 35.7786,-10.46098 7.15,-1.87682 18.4,-4.43642 25,-5.688 10.5884,-2.00792 15.0584,-2.27234 38,-2.24783 24.3755,0.026 26.7874,0.19585 38.6016,2.71791 6.9308,1.47958 16.6058,4.10307 21.5,5.82998 4.8941,1.72691 12.4948,4.94763 16.8905,7.15714 4.3956,2.20951 11.1456,6.16037 15,8.77968 3.8543,2.61931 9.8142,7.21079 13.2442,10.20329 3.43,2.9925 8.9861,8.55214 12.347,12.35475 3.3609,3.80262 8.4941,10.51385 11.4072,14.91385 2.9131,4.4 7.5801,12.57577 10.3712,18.16839 2.791,5.59261 6.8289,15.26761 8.9729,21.5 2.1441,6.23238 4.8341,15.38161 5.9779,20.33161 1.1437,4.95 2.7409,13.725 3.5492,19.5 0.8083,5.775 1.7664,14.6625 2.1291,19.75 0.445,6.2434 0.3161,9.25 -0.3967,9.25 -0.5808,0 -1.3288,-1.2375 -1.6623,-2.75 z M 995.7857,294.18786 c -4.4,-0.4872 -13.9977,-1.83775 -21.3282,-3.0012 -7.3306,-1.16345 -18.6879,-3.42414 -25.2385,-5.02375 -6.5507,-1.59961 -17.65293,-4.77636 -24.67183,-7.05946 -7.0188,-2.28309 -18.6115,-6.51105 -25.7615,-9.39546 -7.15,-2.88441 -18.175,-7.75196 -24.5,-10.81677 -6.325,-3.0648 -16.9,-8.58175 -23.5,-12.25988 -6.6,-3.67813 -18.4273,-10.89514 -26.283,-16.0378 -7.8557,-5.14266 -19.3307,-13.13106 -25.5,-17.75201 -6.1693,-4.62094 -16.9685,-13.21361 -23.9981,-19.09482 -7.0296,-5.8812 -19.2921,-17.08924 -27.25,-24.90675 -7.9579,-7.81752 -14.4689,-14.82078 -14.4689,-15.56281 0,-1.10865 3.8771,-1.24554 21.75,-0.76793 11.9625,0.31967 27.4267,1.27394 34.3649,2.12059 6.9382,0.84666 18.5143,2.68969 25.7249,4.09563 7.2105,1.40594 17.7338,3.91733 23.3851,5.58088 5.6513,1.66354 14.1001,4.39956 18.7751,6.08005 4.675,1.68049 14.4791,5.90804 21.7867,9.39456 7.3077,3.48652 17.6577,8.9464 23,12.13307 5.3424,3.18667 14.6218,9.30648 20.621,13.59957 5.9991,4.29309 19.53413,14.50552 30.07753,22.69428 10.5435,8.18877 24.2001,18.28806 30.348,22.44286 6.1479,4.1548 15.113,9.52544 19.9224,11.93475 4.8095,2.40931 12.1194,5.59567 16.2444,7.08079 4.125,1.48513 11.1905,3.57876 15.701,4.65252 4.5106,1.07377 13.2856,2.33111 19.5,2.7941 6.2145,0.46299 17.599,0.47818 25.299,0.0338 7.7,-0.44442 18.5,-1.48983 24,-2.32313 5.5,-0.8333 11.4625,-1.81638 13.25,-2.18462 1.9058,-0.3926 3.25,-0.26544 3.25,0.30744 0,0.53733 -3.0375,2.36616 -6.75,4.06408 -3.7125,1.69791 -9.1822,4.03541 -12.1548,5.19445 -2.9726,1.15904 -10.1726,3.45083 -16,5.09286 -5.8274,1.64204 -15.9952,3.91794 -22.5952,5.05756 -9.2352,1.59464 -17.4144,2.1465 -35.5,2.39524 -12.925,0.17776 -27.1,-0.0754 -31.5,-0.56264 z"
       id="path3349"
       inkscape:connector-curvature="0" />
  </g>
</svg>
